<svg xmlns="http://www.w3.org/2000/svg" xmlns:xlink="http://www.w3.org/1999/xlink" style="isolation:isolate" width="203" height="219" viewBox="0 0 203 219"><defs><clipPath id="_clipPath_5whuutb0iqX0aqXRgqjUDsYleFglFfil"><rect width="203" height="219"/></clipPath></defs><g clip-path="url(#_clipPath_5whuutb0iqX0aqXRgqjUDsYleFglFfil)"><g><path fill="#C03D24" stroke="#591C10" stroke-linecap="round" stroke-linejoin="round" stroke-miterlimit="3" stroke-width="2.3" d="M 69.82 2.58 L 18.34 65.94 L 129.22 30.3 L 69.82 2.58 Z"/><path fill="#E6492A" stroke="#591C10" stroke-linecap="round" stroke-linejoin="round" stroke-miterlimit="3" stroke-width="2.3" d="M 18.34 65.94 L 97.54 137.22 L 129.22 30.3 L 18.34 65.94 Z"/><path fill="#CC4126" stroke="#591C10" stroke-linecap="round" stroke-linejoin="round" stroke-miterlimit="3" stroke-width="2.3" d="M 200.5 121.38 L 133.18 216.42 L 97.54 137.22 L 200.5 121.38 Z"/><path fill="#902E1B" stroke="#591C10" stroke-linecap="round" stroke-linejoin="round" stroke-miterlimit="3" stroke-width="2.3" d="M 18.34 65.94 L 2.5 97.62 L 18.34 180.78 L 18.34 65.94 Z"/><path fill="#C53F24" stroke="#591C10" stroke-linecap="round" stroke-linejoin="round" stroke-miterlimit="3" stroke-width="2.3" d="M 18.34 65.94 L 97.54 137.22 L 18.34 180.78 L 18.34 65.94 Z"/><path fill="#B53A21" stroke="#591C10" stroke-linecap="round" stroke-linejoin="round" stroke-miterlimit="3" stroke-width="2.3" d="M 18.34 180.78 L 133.18 216.42 L 97.54 137.22 L 18.34 180.78 Z"/><path fill="#E94B2B" stroke="#591C10" stroke-linecap="round" stroke-linejoin="round" stroke-miterlimit="3" stroke-width="2.3" d="M 97.54 137.22 L 129.22 30.3 L 200.5 121.38 L 97.54 137.22 Z"/><path fill="#932F1B" stroke="#591C10" stroke-linecap="round" stroke-linejoin="round" stroke-miterlimit="3" stroke-width="2.3" d="M 200.5 121.38 L 184.66 157.02 L 133.18 216.42 L 200.5 121.38 Z"/><path fill="#C73F25" stroke="#591C10" stroke-linecap="round" stroke-linejoin="round" stroke-miterlimit="3" stroke-width="2.3" d="M 129.22 30.3 L 200.5 121.38 L 184.66 38.22 L 129.22 30.3 Z"/><path fill="#AE3720" stroke="#591C10" stroke-linecap="round" stroke-linejoin="round" stroke-miterlimit="3" stroke-width="2.3" d="M 69.82 2.58 L 129.22 30.3 L 184.66 38.22 L 69.82 2.58 Z"/></g></g></svg>